<?xml version="1.0" encoding="utf-8"?>
<!-- Generator: Adobe Illustrator 26.3.1, SVG Export Plug-In . SVG Version: 6.00 Build 0)  -->
<svg version="1.1" id="Layer_1" xmlns="http://www.w3.org/2000/svg" xmlns:xlink="http://www.w3.org/1999/xlink" x="0px" y="0px"
	 viewBox="0 0 1024 1024" style="enable-background:new 0 0 1024 1024;" xml:space="preserve">
<style type="text/css">
	.st0{fill:#A3AAB2;}
</style>
<path class="st0" d="M227.7,384.5C263,325.4,345.8,274.9,418.5,288c33.3,8,57.2,30.2,87,42.6c40.9,17.9,86.1,27.5,132.1,26.7
	c33.7-1.9,114.8-4.1,118.6-48.7c17.5,53.8-73.8,84.7-114.2,92c-66,12.4-138.3-2-195.3-39.1c-19.4-12.3-33.1-24.6-54.4-27.4
	C335.1,331.3,279.8,351.6,227.7,384.5L227.7,384.5z"/>
<path class="st0" d="M227.7,541c35.3-59.1,118.1-109.6,190.8-96.5c33.3,8,57.2,30.2,87,42.6c40.9,17.9,86.1,27.5,132.1,26.7
	c33.7-1.9,114.8-4.1,118.6-48.7c17.5,53.8-73.8,84.7-114.2,92c-66,12.4-138.3-2-195.3-39.1c-19.4-12.3-33.1-24.6-54.4-27.4
	C335.1,487.8,279.8,508,227.7,541L227.7,541z"/>
<path class="st0" d="M227.7,697.4c35.3-59.1,118.1-109.6,190.8-96.5c33.3,8,57.2,30.2,87,42.6c40.9,17.9,86.1,27.5,132.1,26.7
	c33.7-1.9,114.8-4.1,118.6-48.7c17.5,53.8-73.8,84.7-114.2,92c-66,12.4-138.3-2-195.3-39.1c-19.4-12.3-33.1-24.6-54.4-27.4
	C335.1,644.2,279.8,664.5,227.7,697.4L227.7,697.4z"/>
<path class="st0" d="M256,160.9c96.2-28.4,190.8-61.5,287.2-89c71.4-14.4,148.2-0.1,208.4,41.8c49.2,32.5,86.1,82.7,105.6,139.1
	l54.7,162.8c12.5,40.6,38.2,105.1,43.4,147.4c13.1,100.2-31.8,205.6-114.6,264.3c-25.4,18.1-53.6,32.1-83.3,41.6
	c-54.7,16.6-109.5,33.3-164.4,49.4c-50.6,13.5-119.2,40-172.3,39.2c-123.2,3.6-240.3-84.9-271.6-203.2
	C134.2,699.3,95.5,559,80.4,506C32.7,362.1,110.3,205.6,256,160.9L256,160.9z M256,160.9C128.5,199.8,50.3,332,78.3,462.3
	c20.9,74.5,69.4,210,93.7,285C208.4,857.9,324.6,931,439.4,915c36.9-4.4,103.6-29.7,140.3-40.6c54.6-17.3,109.2-34.1,163.9-51
	c108.1-31.8,184-143.7,171.9-256.1c-2.8-37.3-25.7-104.9-35.2-142.1c0,0-45.7-165.5-45.7-165.5c-30.8-116.4-149-198.3-269.4-185.4
	c-20.7,2.4-42.5,6.9-62.4,13.2C420.3,111.1,338.2,135.9,256,160.9L256,160.9z"/>
</svg>
